# xmcd
#
# Track frame offsets:
#	150
#	17092
#	35682
#	55925
#	75327
#	92153
#	101925
#	118535
#	136048
#
# Disc length: 1965 seconds
#
# Revision: 0
# Processed by: cddbd v1.5.2PL0 Copyright (c) Steve Scherf et al.
# Submitted via: EasyCDDAExtractor 11.5.3.1
#
DISCID=6c07ab09
DTITLE=Plane - I See Love In The Future
DYEAR=2007
DGENRE=
TTITLE0=Blood On The Waves
TTITLE1=Under One Moon
TTITLE2=I See Love In The Future
TTITLE3=Morning Sun
TTITLE4=The Calling Days
TTITLE5=god's Ants
TTITLE6=Save The Lost Its Past
TTITLE7=Rundowners
TTITLE8=All The Last Years
EXTD=
EXTT0=
EXTT1=
EXTT2=
EXTT3=
EXTT4=
EXTT5=
EXTT6=
EXTT7=
EXTT8=
PLAYORDER=
